<mxfile host="app.diagrams.net" modified="2024-04-03T15:22:45.152Z" agent="Mozilla/5.0 (Macintosh; Intel Mac OS X 10.15; rv:124.0) Gecko/20100101 Firefox/124.0" version="24.2.2" etag="-sGjIHPwQ_YP6myaHrCC" type="github">
  <diagram name="PÃ¡gina-1" id="E673iw_Ba5-OrHFuVCCg">
    <mxGraphModel>
      <root>
        <mxCell id="0" />
        <mxCell id="1" parent="0" />
      </root>
    </mxGraphModel>
  </diagram>
</mxfile>
